<?xml version="1.0" standalone="no"?>
<!DOCTYPE svg PUBLIC "-//W3C//DTD SVG 20010904//EN"
 "http://www.w3.org/TR/2001/REC-SVG-20010904/DTD/svg10.dtd">
<svg version="1.0" xmlns="http://www.w3.org/2000/svg"
 width="720.000000pt" height="1040.000000pt" viewBox="0 0 720.000000 1040.000000"
 preserveAspectRatio="xMidYMid meet">

<g transform="translate(0.000000,1040.000000) scale(0.100000,-0.100000)"
fill="#000000" stroke="none">
<path d="M2912 8903 l-63 -138 1 -803 c0 -637 -2 -804 -12 -807 -7 -3 -367 -4
-800 -3 l-787 3 61 133 61 132 671 0 671 -1 59 -129 c33 -72 61 -128 63 -126
2 2 -23 61 -55 132 l-59 129 -679 2 -679 2 -63 -138 -64 -138 -141 -66 -142
-66 0 -677 0 -676 140 -64 141 -65 65 -142 65 -142 675 -3 676 -2 66 137 65
138 1 -1602 1 -1603 805 0 805 0 2 1591 3 1591 57 -124 57 -123 677 0 677 0
62 133 c33 72 66 137 72 143 6 6 71 38 144 73 l134 62 3 675 2 675 -142 65
-141 64 -68 143 -68 142 -678 -2 -677 -3 -55 -122 -56 -122 -2 782 -3 782 -67
148 -68 147 -675 0 -676 0 -62 -137z m1463 5 c31 -68 60 -129 62 -135 4 -10
-157 -13 -786 -13 -435 0 -791 2 -791 5 0 2 23 53 51 112 28 59 55 118 60 131
l9 22 668 0 669 0 58 -122z m75 -963 l0 -795 -795 0 -795 0 0 795 0 795 795 0
795 0 0 -795z m1538 -657 l61 -133 -394 -3 c-216 -1 -573 -1 -793 0 l-399 3
61 132 61 133 671 0 670 0 62 -132z m-4748 -943 c0 -431 -3 -786 -7 -788 -5
-2 -68 24 -140 59 l-133 63 0 666 0 666 133 63 c72 35 135 61 140 59 4 -2 7
-357 7 -788z m1610 -5 l0 -800 -800 0 -800 0 0 800 0 800 800 0 800 0 0 -800z
m1600 0 l0 -800 -795 0 -795 0 0 800 0 800 795 0 795 0 0 -800z m1610 0 l0
-800 -800 0 -800 0 0 800 0 800 800 0 800 0 0 -800z m146 731 l129 -59 3 -669
2 -670 -82 -37 c-46 -21 -107 -49 -135 -62 l-53 -24 0 790 c0 435 2 790 4 790
2 0 62 -27 132 -59z m-3376 -1550 c0 -4 -27 -65 -60 -135 l-59 -126 -669 0
-669 0 -25 58 c-14 31 -42 92 -62 135 l-35 77 789 0 c436 0 790 -4 790 -9z
m1620 -791 l0 -800 -795 0 -795 0 0 800 0 800 795 0 795 0 0 -800z m1553 703
c-25 -54 -52 -115 -61 -136 l-15 -37 -670 2 -670 3 -63 133 -63 132 794 0 794
0 -46 -97z m-1553 -2308 l0 -795 -795 0 -795 0 0 795 0 795 795 0 795 0 0
-795z"/>
</g>
  <image
     x="332"
     y="-605"
     width="152"
     height="152"
     xlink:href="/home/peter/Desktop/cognitive_collaboration/boxes_wrappers/whycon/00000012.svg"
     id="image10"
     transform="matrix(0,1,-1,0,0,0)" />
  <image
     x="-444"
     y="-324"
     width="152"
     height="152"
     xlink:href="/home/peter/Desktop/cognitive_collaboration/boxes_wrappers/whycon/00000012.svg"
     id="image12"
     transform="scale(-1,-1)" />
  <image
     x="131"
     y="332"
     width="152"
     height="152"
     xlink:href="/home/peter/Desktop/cognitive_collaboration/boxes_wrappers/whycon/00000012.svg"
     id="image14" />
   <image
     x="290.86441"
     y="329.42371"
     width="152"
     height="152"
     xlink:href="/home/peter/Desktop/cognitive_collaboration/boxes_wrappers/pattern/pattern12.png"
     id="image14-3" />
  <text
     xml:space="preserve"
     style="font-size:30px;font-style:normal;font-weight:normal;line-height:125%;letter-spacing:0px;word-spacing:0px;fill:#000000;fill-opacity:1;stroke:none;font-family:Sans"
     x="347"
     y="742"
     id="text3025"
     sodipodi:linespacing="125%"><tspan
       sodipodi:role="line"
       id="tspan3027"
       x="347"
       y="742">12</tspan></text>
   <rect
     style="fill:#000000;fill-rule:evenodd;stroke:#000000;stroke-width:1px;stroke-linecap:butt;stroke-linejoin:miter;stroke-opacity:1"
     id="rect2995"
     width="38"
     height="2"
     x="438"
     y="934"
     transform="scale(0.8,0.8)" />
</svg>
