<?xml version="1.0" standalone="no"?>
<!DOCTYPE svg PUBLIC "-//W3C//DTD SVG 20010904//EN"
 "http://www.w3.org/TR/2001/REC-SVG-20010904/DTD/svg10.dtd">
<svg version="1.0" xmlns="http://www.w3.org/2000/svg"
 width="1800.000000pt" height="1800.000000pt" viewBox="0 0 1800.000000 1800.000000"
 preserveAspectRatio="xMidYMid meet">
<metadata>
Created by potrace 1.11, written by Peter Selinger 2001-2013
</metadata>
<g transform="translate(0.000000,1800.000000) scale(0.100000,-0.100000)"
fill="#000000" stroke="none">
<path d="M8510 17979 c-1834 -106 -3549 -746 -5008 -1866 -494 -380 -999 -867
-1414 -1365 -1519 -1821 -2259 -4200 -2043 -6568 136 -1489 642 -2924 1467
-4163 349 -524 686 -935 1133 -1382 447 -447 858 -784 1382 -1133 1793 -1194
3972 -1704 6114 -1432 1372 175 2695 668 3842 1432 524 349 935 686 1382 1133
447 447 784 858 1133 1382 1194 1793 1704 3972 1432 6114 -202 1589 -820 3081
-1807 4367 -380 494 -867 999 -1365 1414 -1390 1160 -3125 1877 -4938 2043
-381 34 -951 45 -1310 24z m850 -9 c417 -18 745 -53 1150 -121 2128 -358 4071
-1487 5445 -3164 636 -776 1150 -1680 1493 -2625 628 -1733 709 -3612 232
-5393 -519 -1937 -1675 -3646 -3285 -4857 -703 -528 -1497 -957 -2325 -1258
-1733 -628 -3612 -709 -5393 -232 -1937 519 -3646 1675 -4857 3285 -528 703
-957 1497 -1258 2325 -628 1733 -709 3612 -232 5393 519 1937 1675 3646 3285
4857 910 684 1961 1195 3062 1490 875 234 1804 338 2683 300z"/>
<path d="M8610 15989 c-1392 -83 -2707 -564 -3810 -1393 -2469 -1854 -3433
-5104 -2373 -8006 706 -1935 2238 -3467 4173 -4173 2005 -732 4229 -513 6050
596 2082 1268 3360 3543 3360 5982 0 1513 -494 2993 -1404 4205 -1328 1770
-3424 2812 -5631 2798 -126 0 -291 -5 -365 -9z m390 -3687 l0 -898 158 -12
c249 -19 426 -55 647 -133 65 -23 120 -37 125 -32 4 4 159 376 345 826 186
449 342 817 346 817 28 0 313 -138 465 -226 655 -375 1193 -913 1568 -1568 88
-152 226 -437 226 -465 0 -4 -368 -160 -817 -346 -450 -186 -822 -341 -826
-345 -5 -5 9 -60 32 -125 185 -526 185 -1074 0 -1600 -23 -65 -37 -120 -32
-125 4 -4 376 -159 826 -345 449 -186 817 -342 817 -346 0 -12 -73 -175 -124
-276 -177 -353 -410 -683 -715 -1013 l-60 -65 -638 638 -638 637 -45 -46
c-147 -151 -447 -353 -664 -448 l-74 -32 343 -829 c338 -817 344 -830 322
-841 -43 -23 -279 -105 -411 -143 -328 -96 -633 -144 -1048 -166 l-118 -6 0
899 0 898 -157 12 c-250 19 -427 55 -648 133 -65 23 -120 37 -125 32 -4 -4
-159 -376 -345 -825 -186 -450 -342 -818 -346 -818 -12 0 -175 73 -276 124
-353 177 -683 410 -1013 715 l-65 60 638 638 637 638 -46 45 c-151 147 -353
447 -448 664 l-32 74 -829 -343 c-817 -338 -830 -344 -841 -322 -23 43 -105
279 -143 411 -96 328 -144 633 -166 1049 l-6 117 899 0 898 0 12 158 c19 249
55 426 133 647 23 65 37 120 32 125 -4 4 -376 159 -825 345 -450 186 -818 342
-818 346 0 12 73 175 124 276 177 353 410 683 715 1013 l60 65 638 -638 638
-637 45 46 c147 151 447 353 664 448 l74 32 -344 829 -343 830 52 23 c28 13
131 50 227 82 408 136 801 204 1273 218 l47 2 0 -898z"/>
</g>
</svg>
