<?xml version="1.0" standalone="no"?>
<!DOCTYPE svg PUBLIC "-//W3C//DTD SVG 20010904//EN"
 "http://www.w3.org/TR/2001/REC-SVG-20010904/DTD/svg10.dtd">
<svg version="1.0" xmlns="http://www.w3.org/2000/svg"
 width="1800.000000pt" height="1800.000000pt" viewBox="0 0 1800.000000 1800.000000"
 preserveAspectRatio="xMidYMid meet">
<metadata>
Created by potrace 1.11, written by Peter Selinger 2001-2013
</metadata>
<g transform="translate(0.000000,1800.000000) scale(0.100000,-0.100000)"
fill="#000000" stroke="none">
<path d="M8510 17979 c-1834 -106 -3549 -746 -5008 -1866 -494 -380 -999 -867
-1414 -1365 -1519 -1821 -2259 -4200 -2043 -6568 136 -1489 642 -2924 1467
-4163 349 -524 686 -935 1133 -1382 447 -447 858 -784 1382 -1133 1793 -1194
3972 -1704 6114 -1432 1372 175 2695 668 3842 1432 524 349 935 686 1382 1133
447 447 784 858 1133 1382 1194 1793 1704 3972 1432 6114 -202 1589 -820 3081
-1807 4367 -380 494 -867 999 -1365 1414 -1390 1160 -3125 1877 -4938 2043
-381 34 -951 45 -1310 24z m850 -9 c417 -18 745 -53 1150 -121 2128 -358 4071
-1487 5445 -3164 636 -776 1150 -1680 1493 -2625 628 -1733 709 -3612 232
-5393 -519 -1937 -1675 -3646 -3285 -4857 -703 -528 -1497 -957 -2325 -1258
-1733 -628 -3612 -709 -5393 -232 -1937 519 -3646 1675 -4857 3285 -528 703
-957 1497 -1258 2325 -628 1733 -709 3612 -232 5393 519 1937 1675 3646 3285
4857 910 684 1961 1195 3062 1490 875 234 1804 338 2683 300z"/>
<path d="M8610 15989 c-1392 -83 -2707 -564 -3810 -1393 -2469 -1854 -3433
-5104 -2373 -8006 706 -1935 2238 -3467 4173 -4173 2005 -732 4229 -513 6050
596 2082 1268 3360 3543 3360 5982 0 1513 -494 2993 -1404 4205 -1328 1770
-3424 2812 -5631 2798 -126 0 -291 -5 -365 -9z m760 -2810 c256 -20 552 -75
806 -150 132 -38 368 -120 411 -143 22 -11 16 -24 -322 -841 l-343 -829 74
-32 c217 -95 517 -297 664 -448 l45 -46 638 637 638 638 60 -65 c305 -330 538
-660 715 -1013 51 -101 124 -264 124 -276 0 -4 -368 -160 -817 -346 -450 -186
-822 -341 -826 -345 -5 -5 9 -60 32 -125 185 -526 185 -1074 0 -1600 -23 -65
-37 -120 -32 -125 4 -4 376 -159 826 -345 449 -186 817 -342 817 -346 0 -12
-73 -175 -124 -276 -177 -353 -410 -683 -715 -1013 l-60 -65 -638 638 -638
637 -45 -46 c-147 -151 -447 -353 -664 -448 l-74 -32 344 -829 343 -830 -52
-23 c-90 -41 -396 -139 -547 -176 -665 -162 -1345 -162 -2010 0 -151 37 -457
135 -547 176 l-52 23 343 830 344 829 -74 32 c-393 171 -787 511 -1026 884
-71 110 -132 222 -172 314 l-32 74 -829 -343 c-817 -338 -830 -344 -841 -322
-23 43 -105 279 -143 411 -96 328 -144 633 -166 1049 l-6 117 899 0 898 0 12
158 c19 249 55 426 133 647 23 65 37 120 32 125 -4 4 -376 159 -825 345 -450
186 -818 342 -818 346 0 28 138 313 226 465 375 655 913 1193 1568 1568 152
88 437 226 465 226 4 0 160 -368 346 -817 186 -450 341 -822 345 -826 5 -5 60
9 125 32 221 78 398 114 648 133 l157 12 0 898 0 899 118 -6 c64 -3 173 -10
242 -16z"/>
</g>
</svg>
